Coordinates
version=1
nRows=29
nColumns=22
inDegrees=yes

Units are S.I. units (second, meters, Newtons, ...)
If the header above contains a line with 'inDegrees', this indicates whether rotational values are in degrees (yes) or radians (no).

endheader
time	pelvis_tilt	pelvis_list	pelvis_rotation	pelvis_tx	pelvis_ty	pelvis_tz	hip_flexion_r	hip_adduction_r	hip_rotation_r	knee_angle_r	ankle_angle_r	subtalar_angle_r	hip_flexion_l	hip_adduction_l	hip_rotation_l	knee_angle_l	ankle_angle_l	subtalar_angle_l	lumbar_extension	lumbar_bending	lumbar_rotation
      1.29000000	     -3.07218652	     -4.50311073	     -3.06321220	     -0.89522917	      1.00256094	     -0.47248156	     19.03233752	      6.16145945	    -12.89475832	    -22.03995341	      5.73661699	     -5.27858688	      0.26208840	    -14.91672408	    -18.56683423	    -51.26067307	    -10.99761970	      5.34096992	     -2.39006844	      3.84344868	     -6.83183185
      1.30000000	     -2.93452158	     -4.60852669	     -3.13711478	     -0.88710664	      1.00318801	     -0.46928506	     18.30509619	      6.50802446	    -12.70188479	    -21.92166368	      6.12801403	     -5.48520577	      1.62021669	    -15.17264713	    -17.68403375	    -53.21021675	    -10.17650012	      4.69992484	     -2.51084432	      3.98999850	     -6.81070731
      1.31000000	     -2.81434730	     -4.67423626	     -3.23545300	     -0.87915090	      1.00380665	     -0.46614353	     17.58844117	      6.80934821	    -12.51646579	    -21.77205241	      6.50857876	     -5.67995353	      3.01527692	    -15.27821058	    -16.73232485	    -54.94860650	     -9.11335927	      4.06368843	     -2.62450657	      4.08680747	     -6.74290823
      1.32000000	     -2.67200699	     -4.72893704	     -3.33228642	     -0.87132764	      1.00450216	     -0.46306915	     16.82352265	      7.08980850	    -12.35931387	    -21.56205693	      6.83617982	     -5.80344582	      4.40041057	    -15.27489144	    -15.71759354	    -56.47129263	     -7.84563953	      3.65601254	     -2.77344830	      4.16436946	     -6.67724475
      1.33000000	     -2.54345642	     -4.73549588	     -3.47349068	     -0.86363634	      1.00522433	     -0.45996641	     16.05981278	      7.32661821	    -12.17623823	    -21.31372901	      7.14361134	     -5.92491669	      5.78339239	    -15.14155899	    -14.71879661	    -57.76307249	     -6.43699897	      3.34933784	     -2.91187193	      4.17601267	     -6.55090192
      1.34000000	     -2.41889142	     -4.70485300	     -3.65667911	     -0.85605423	      1.00599584	     -0.45681062	     15.27999092	      7.53119643	    -11.96926578	    -21.01773118	      7.42026197	     -6.03090075	      7.14474788	    -14.90327356	    -13.74682624	    -58.82300423	     -4.93043447	      3.19190380	     -3.04950554	      4.13092382	     -6.37982119
      1.35000000	     -2.30574004	     -4.64115330	     -3.89061954	     -0.84856791	      1.00680170	     -0.45356269	     14.49230573	      7.70914594	    -11.74248636	    -20.67711036	      7.66945849	     -6.12180494	      8.48189407	    -14.57909264	    -12.81670972	    -59.65099417	     -3.36912072	      3.19738404	     -3.17732331	      4.03337594	     -6.15529552
      1.36000000	     -2.19905562	     -4.54551123	     -4.18280237	     -0.84115354	      1.00764419	     -0.45020619	     13.68960629	      7.86269730	    -11.47689539	    -20.29206461	      7.89698639	     -6.19344722	      9.77799748	    -14.18339498	    -11.94665666	    -60.24433398	     -1.80723985	      3.36012986	     -3.29916561	      3.88444036	     -5.87601259
      1.37000000	     -2.09415642	     -4.42236895	     -4.53808867	     -0.83378853	      1.00851870	     -0.44672669	     12.86537000	      7.99592202	    -11.16009677	    -19.86379967	      8.10099458	     -6.24234932	     11.02026731	    -13.73488682	    -11.15212711	    -60.60301884	     -0.30245204	      3.63327571	     -3.41913781	      3.69026837	     -5.54338083
      1.38000000	     -1.99403501	     -4.28851094	     -4.95595336	     -0.82646613	      1.00940853	     -0.44312057	     12.01876988	      8.12367339	    -10.80691726	    -19.38570735	      8.28971543	     -6.27019767	     12.20787850	    -13.26336636	    -10.43653296	    -60.72694917	      1.09033480	      3.93279430	     -3.53758297	      3.47190641	     -5.15320233
      1.39000000	     -1.89952390	     -4.15194444	     -5.42599963	     -0.81917694	      1.01028535	     -0.43940580	     11.15298811	      8.25142757	    -10.40548142	    -18.86546764	      8.45186618	     -6.28082319	     13.34509752	    -12.78796234	     -9.79780484	    -60.62888193	      2.33732566	      4.22211891	     -3.65187489	      3.24243302	     -4.72867936
      1.40000000	     -1.82225932	     -4.02219138	     -5.93114202	     -0.81193012	      1.01110034	     -0.43562752	     10.29139389	      8.37880082	    -10.00274837	    -18.32301024	      8.59180534	     -6.28395076	     14.44843611	    -12.31987702	     -9.21436160	    -60.31835851	      3.43004023	      4.33040993	     -3.75064430	      3.01693018	     -4.28044020
      1.41000000	     -1.74357793	     -3.90968843	     -6.49302046	     -0.80470296	      1.01188788	     -0.43169874	      9.37865796	      8.53390316	     -9.48551216	    -17.69889858	      8.71711931	     -6.26426452	     15.48436391	    -11.89886016	     -8.72810299	    -59.79524953	      4.32430042	      4.60674882	     -3.85962038	      2.79934038	     -3.79894736
      1.42000000	     -1.69637387	     -3.81358488	     -7.06745685	     -0.79751528	      1.01253721	     -0.42777748	      8.49457702	      8.68764615	     -8.99338221	    -17.07221467	      8.83404327	     -6.24431624	     16.50529419	    -11.50280937	     -8.27584040	    -59.08194750	      5.07174433	      4.65997099	     -3.93968198	      2.60724032	     -3.31991649
      1.43000000	     -1.66828120	     -3.73722959	     -7.65715507	     -0.79040466	      1.01305681	     -0.42383761	      7.62487200	      8.85166752	     -8.45732917	    -16.43994388	      8.93882280	     -6.21658046	     17.49480228	    -11.14257744	     -7.86143147	    -58.17903055	      5.69300308	      4.63697402	     -4.01690783	      2.43931470	     -2.83823465
      1.44000000	     -1.64686407	     -3.68061716	     -8.27445218	     -0.78327808	      1.01346340	     -0.41984741	      6.73463390	      9.02570142	     -7.87965560	    -15.77309935	      9.05412056	     -6.16885000	     18.41904319	    -10.83731971	     -7.52728358	    -57.08028797	      6.17929408	      4.56560278	     -4.09200837	      2.29187488	     -2.34298458
      1.45000000	     -1.64310766	     -3.64236005	     -8.89376422	     -0.77619536	      1.01370301	     -0.41587800	      5.86567102	      9.20051408	     -7.30652590	    -15.11831447	      9.17948203	     -6.10780393	     19.30707927	    -10.57172097	     -7.23120250	    -55.80793726	      6.60052653	      4.44252658	     -4.16404883	      2.16890979	     -1.85686737
      1.46000000	     -1.65342295	     -3.62179531	     -9.51357189	     -0.76912735	      1.01378165	     -0.41193922	      5.01247245	      9.37535303	     -6.73755920	    -14.47503811	      9.32743948	     -6.02942637	     20.14522147	    -10.35200819	     -6.99491997	    -54.35787945	      6.97042390	      4.29151036	     -4.23471220	      2.07329917	     -1.38986549
      1.47000000	     -1.67558955	     -3.61942230	    -10.12744827	     -0.76206876	      1.01369373	     -0.40802174	      4.18161939	      9.55190888	     -6.18498720	    -13.86196882	      9.50225069	     -5.93309685	     20.93002065	    -10.17347040	     -6.80316534	    -52.73817650	      7.30317937	      4.13336073	     -4.30655056	      1.99962759	     -0.94337820
      1.48000000	     -1.72078150	     -3.63572820	    -10.74543114	     -0.75503956	      1.01341904	     -0.40415595	      3.40207516	      9.73068555	     -5.63978126	    -13.31106400	      9.68800452	     -5.83488384	     21.67110868	    -10.03668589	     -6.66332478	    -50.96115824	      7.63189008	      3.99657746	     -4.37129104	      1.95731141	     -0.49280852
      1.49000000	     -1.77470697	     -3.66669985	    -11.36485016	     -0.74801686	      1.01298886	     -0.40032523	      2.65509266	      9.90790147	     -5.10569248	    -12.81733581	      9.89824246	     -5.72927213	     22.34917560	     -9.93396649	     -6.57756837	    -49.03051058	      7.91557119	      3.87525566	     -4.44038416	      1.93423071	     -0.05257361
      1.50000000	     -1.83536175	     -3.70722780	    -11.98691984	     -0.74097974	      1.01241563	     -0.39652372	      1.94494226	     10.07960980	     -4.57904440	    -12.39355057	     10.13477384	     -5.62225594	     22.95824035	     -9.85865426	     -6.55240279	    -46.95338612	      8.14081405	      3.77295966	     -4.51156337	      1.92662324	      0.37602890
      1.51000000	     -1.88978367	     -3.75203123	    -12.60787720	     -0.73390403	      1.01172904	     -0.39276507	      1.25849643	     10.23716611	     -4.06149795	    -12.03922502	     10.40921553	     -5.51167272	     23.48464213	     -9.79429173	     -6.58028056	    -44.74193605	      8.28580776	      3.68965869	     -4.59483208	      1.92417421	      0.78497601
      1.52000000	     -1.94829190	     -3.79310069	    -13.23409347	     -0.72678521	      1.01091601	     -0.38904020	      0.61797033	     10.37538616	     -3.54807542	    -11.77159064	     10.71680836	     -5.41695529	     23.94188602	     -9.73182184	     -6.65659552	    -42.41551704	      8.36821692	      3.64466846	     -4.67545758	      1.91999676	      1.18567070
      1.53000000	     -2.00246874	     -3.82612203	    -13.85618583	     -0.71960161	      1.00999881	     -0.38537333	      0.01857298	     10.48826029	     -3.03850323	    -11.59610716	     11.06552663	     -5.34210721	     24.32663313	     -9.65226302	     -6.75568490	    -39.99550800	      8.38612181	      3.64993431	     -4.75879095	      1.91033522	      1.56610796
      1.54000000	     -2.02409289	     -3.85326943	    -14.47104827	     -0.71235790	      1.00902758	     -0.38176576	     -0.55851901	     10.57212679	     -2.52778053	    -11.53274560	     11.44999611	     -5.27316682	     24.61152577	     -9.54263967	     -6.84762159	    -37.50229467	      8.35321832	      3.72061170	     -4.88139760	      1.88849972	      1.92206204
      1.55000000	     -2.05433323	     -3.86014315	    -15.07554715	     -0.70499416	      1.00793925	     -0.37818792	     -1.08906745	     10.62592234	     -2.02648318	    -11.54078906	     11.87651072	     -5.23276519	     24.85551066	     -9.40790282	     -6.95329737	    -34.97997415	      8.28611002	      3.88394726	     -4.97543206	      1.84795548	      2.25019940
      1.56000000	     -2.13398063	     -3.83603025	    -15.68150049	     -0.69758365	      1.00666490	     -0.37461970	     -1.48834205	     10.65266195	     -1.53463163	    -11.69211144	     12.35487307	     -5.24940224	     25.12089298	     -9.24932206	     -7.04759977	    -32.47085031	      8.16702330	      4.09535722	     -5.00127210	      1.78470402	      2.56966712
      1.57000000	     -2.12216542	     -3.81796144	    -16.25368985	     -0.69004448	      1.00545807	     -0.37111886	     -1.94899111	     10.65000311	     -1.05128661	    -11.91781245	     12.84339426	     -5.22679734	     25.24447315	     -9.05193499	     -7.09841755	    -29.97720021	      8.06446709	      4.47114884	     -5.12805192	      1.70748748	      2.82929373
